HIERARCHY
ROOT root
{
	OFFSET	0	13.1	24.9
	CHANNELS 6  Xposition Yposition Zposition Xrotation Yrotation Zrotation
	JOINT spine_1
	{
		OFFSET	0	9.99999	0
		CHANNELS 3  Xrotation Yrotation Zrotation
		JOINT spine_2
		{
			OFFSET	0	112	-10
			CHANNELS 3  Xrotation Yrotation Zrotation
			JOINT spine_3
			{
				OFFSET	0	206.5	19.3
				CHANNELS 3  Xrotation Yrotation Zrotation
				JOINT spine_4
				{
					OFFSET	0	110.4	14.6
					CHANNELS 3  Xrotation Yrotation Zrotation
					JOINT neck_1
					{
						OFFSET	0	71.8	-50.3
						CHANNELS 3  Xrotation Yrotation Zrotation
						JOINT neck_2
						{
							OFFSET	0	86.2	-25.8
							CHANNELS 3  Xrotation Yrotation Zrotation
							JOINT head_ee
							{
								OFFSET	0	179.8	-8.7
								CHANNELS 3  Xrotation Yrotation Zrotation
								End Site
								{
									OFFSET	1	0	0
								}
							}
						}
					}
					JOINT left_clavicle
					{
						OFFSET	-43.2	22.4	-70.8
						CHANNELS 3  Xrotation Yrotation Zrotation
						JOINT left_shoulder
						{
							OFFSET	-93.9	-5.79999	48.7
							CHANNELS 3  Xrotation Yrotation Zrotation
							JOINT left_elbow
							{
								OFFSET	-291.4	-30.8	15.2
								CHANNELS 3  Xrotation Yrotation Zrotation
								JOINT left_lowarm_twist
								{
									OFFSET	-110.7	-3.89999	13.6
									CHANNELS 3  Xrotation Yrotation Zrotation
									JOINT left_hand
									{
										OFFSET	-110.7	-3.89999	13.6
										CHANNELS 3  Xrotation Yrotation Zrotation
										JOINT left_ee
										{
											OFFSET	-80.8	-5.10001	12.1
											CHANNELS 3  Xrotation Yrotation Zrotation
											End Site
											{
												OFFSET	1	0	0
											}
										}
									}
								}
							}
						}
					}
					JOINT right_clavicle
					{
						OFFSET	43.2	22.4	-70.8
						CHANNELS 3  Xrotation Yrotation Zrotation
						JOINT right_shoulder
						{
							OFFSET	93.9	-5.79999	48.7
							CHANNELS 3  Xrotation Yrotation Zrotation
							JOINT right_elbow
							{
								OFFSET	291.4	-30.8	15.2
								CHANNELS 3  Xrotation Yrotation Zrotation
								JOINT right_lowarm_twist
								{
									OFFSET	110.7	-3.89999	13.6
									CHANNELS 3  Xrotation Yrotation Zrotation
									JOINT right_hand
									{
										OFFSET	110.7	-3.89999	13.6
										CHANNELS 3  Xrotation Yrotation Zrotation
										JOINT right_ee
										{
											OFFSET	80.8	-5.10001	12.1
											CHANNELS 3  Xrotation Yrotation Zrotation
											End Site
											{
												OFFSET	1	0	0
											}
										}
									}
								}
							}
						}
					}
				}
			}
		}
	}
	JOINT left_hip
	{
		OFFSET	-82.8	-127.5	0.300001
		CHANNELS 3  Xrotation Yrotation Zrotation
		JOINT left_knee
		{
			OFFSET	-28.2	-396.7	2.2
			CHANNELS 3  Xrotation Yrotation Zrotation
			JOINT left_ankle
			{
				OFFSET	-11.7	-411.3	35.4
				CHANNELS 3  Xrotation Yrotation Zrotation
				JOINT left_toes
				{
					OFFSET	0	-60	-88.6
					CHANNELS 3  Xrotation Yrotation Zrotation
					JOINT left_foot_ee
					{
						OFFSET	-22.5	-16.5	-42.2
						CHANNELS 3  Xrotation Yrotation Zrotation
						End Site
						{
							OFFSET	1	0	0
						}
					}
				}
			}
		}
	}
	JOINT right_hip
	{
		OFFSET	82.8	-127.5	0.300001
		CHANNELS 3  Xrotation Yrotation Zrotation
		JOINT right_knee
		{
			OFFSET	28.2	-396.7	2.2
			CHANNELS 3  Xrotation Yrotation Zrotation
			JOINT right_ankle
			{
				OFFSET	11.7	-411.3	35.4
				CHANNELS 3  Xrotation Yrotation Zrotation
				JOINT right_toes
				{
					OFFSET	0	-60	-88.6
					CHANNELS 3  Xrotation Yrotation Zrotation
					JOINT right_foot_ee
					{
						OFFSET	22.5	-16.5	-42.2
						CHANNELS 3  Xrotation Yrotation Zrotation
						End Site
						{
							OFFSET	1	0	0
						}
					}
				}
			}
		}
	}
}
MOTION
Frames: 13
Frame Time: 0.02
1195.19741649 732.578 -1744.55252748 -12.2649759085 34.137627832 9.93171355428 5.38679 0.204136 0.478597 5.3869 0.173268 0.490617 5.38827 0.114456 0.507569 5.38796 0.19318 0.483123 -11.5965 -5.51575 -8.18227 -11.4225 -5.11527 -9.37939 -0.0 0.0 -0.0 0.881958 21.0511 3.71723 -28.1172 -20.8703 64.1925 0.414295 -11.598 0.0420753 -11.757 -0.559341 1.39264 -0.1371 25.3842 9.28296 -0.0 0.0 -0.0 7.66517 14.5684 -14.5951 -18.2602 32.4788 -59.1197 1.02904 27.0098 -0.247149 53.8186 1.25554 6.50942 0.26197 0.755583 -1.43407 0.0 0.0 0.0 38.0952 -14.6486 -3.44978 -65.4318 -2.81418 9.0955 -24.0516 0.260214 3.65668 25.0085 -0.0 -0.0 -0.0 0.0 -0.0 24.4585 13.3481 -8.82324 -12.3754 -0.308561 -1.87045 9.51703 -1.52213 1.36348 18.1821 -0.0 -0.0 0.0 0.0 0.0 
1181.05054004 736.091 -1756.42792802 -11.9547524616 34.7987978075 9.27755691672 5.60644 0.200508 0.690922 5.60669 0.156137 0.70228 5.60833 0.075337 0.715472 5.60767 0.187384 0.694596 -14.2942 -4.88408 -7.82546 -14.1369 -4.57924 -8.95994 -0.0 0.0 -0.0 0.12012 21.9847 2.72175 -28.952 -20.7616 64.5756 0.461291 -12.8719 0.0520352 -11.021 -0.516018 1.30903 0.077608 25.6663 10.6092 -0.0 0.0 -0.0 7.73398 12.9858 -14.8246 -17.2423 31.9312 -58.337 1.11218 28.8514 -0.286101 53.6508 1.24239 6.49242 0.32729 1.98204 -1.35833 0.0 0.0 0.0 41.0125 -16.6491 -3.06091 -62.198 -2.44195 8.76305 -22.8631 -1.68994 3.49586 22.4006 -0.0 -0.0 -0.0 0.0 -0.0 22.4454 12.9247 -8.41539 -13.1498 -0.314347 -1.98912 11.5613 -6.10358 1.63496 18.2901 -0.0 -0.0 0.0 0.0 0.0 
1176.9372011 734.864 -1766.53902136 -12.1367869648 35.1769999547 9.70920415088 5.94493 0.306784 0.669003 5.94514 0.263593 0.687168 5.94804 0.188044 0.711561 5.94746 0.29806 0.672935 -15.6202 -4.26529 -8.40095 -15.4298 -3.26209 -9.35322 -0.0 0.0 -0.0 -0.282796 22.0102 2.15636 -29.0107 -20.7108 64.6907 0.441734 -12.3432 0.0477666 -10.3219 -0.475865 1.2291 0.133151 25.7846 10.9679 -0.0 0.0 -0.0 7.57861 12.9961 -14.4894 -16.2201 32.8174 -58.3084 1.11326 28.8748 -0.28662 53.7535 1.25044 6.50283 0.435206 3.08634 -1.6202 0.0 0.0 0.0 41.1208 -17.7615 -3.10641 -60.3892 -2.24216 8.56819 -22.3135 -1.94059 3.41454 20.8485 -0.0 -0.0 -0.0 0.0 -0.0 22.2448 12.5505 -8.89712 -13.7238 -0.317602 -2.07713 14.1989 -7.76392 1.9872 19.302 -0.0 -0.0 0.0 0.0 0.0 
1148.77781993 731.831 -1779.83984573 -12.5805643225 37.0339957999 9.85424576471 6.34185 0.264295 0.72146 6.34211 0.217853 0.736814 6.34456 0.142449 0.755025 6.34386 0.2599 0.723055 -18.0455 -3.89934 -8.39246 -17.8554 -2.9509 -9.31166 -0.0 0.0 -0.0 -1.13478 22.6916 1.05222 -30.035 -20.543 65.0843 0.47353 -13.2015 0.0547961 -9.34001 -0.421133 1.11605 0.297961 26.2568 12.0715 -0.0 0.0 -0.0 7.4683 12.083 -14.2952 -14.2298 33.0978 -57.875 1.20205 30.771 -0.330785 53.4653 1.22791 6.47358 0.628585 4.80521 -2.20034 0.0 0.0 0.0 42.7142 -18.4671 -2.52706 -55.8712 -1.77103 8.0551 -20.9121 -2.33556 3.20379 18.7655 -0.0 -0.0 -0.0 0.0 -0.0 21.9692 12.3358 -7.43249 -14.5505 -0.320739 -2.20392 16.1043 -10.0976 2.23898 19.9272 -0.0 -0.0 0.0 0.0 0.0 
1127.90934754 730.983 -1789.64626874 -13.7307825682 36.4694684836 10.5190622203 6.48794 0.36735 0.781829 6.48823 0.316858 0.803619 6.49226 0.236368 0.830861 6.49149 0.364616 0.783108 -17.986 -4.00723 -7.49201 -17.8412 -3.63947 -8.51124 -0.0 0.0 -0.0 -1.35734 23.3963 0.847793 -30.8535 -20.4788 65.3001 0.453689 -12.6666 0.0503551 -8.84801 -0.39444 1.05906 0.400528 25.71 12.4744 -0.0 0.0 -0.0 7.4212 11.1519 -14.2351 -13.7341 33.1078 -57.4216 1.28128 32.4023 -0.372289 53.5526 1.23471 6.48245 0.741372 6.03459 -2.4431 0.0 0.0 0.0 43.9691 -18.5696 -2.5872 -52.9069 -1.48465 7.69921 -20.6314 -2.81977 3.16595 18.1287 -0.0 -0.0 -0.0 0.0 -0.0 21.0958 13.0677 -7.10105 -14.9918 -0.321664 -2.27164 18.152 -10.9204 2.50408 19.468 -0.0 -0.0 0.0 0.0 0.0 
1092.99925965 731.018 -1812.51566742 -15.2319772659 38.4417082579 11.9326300823 6.9048 0.258778 0.826401 6.90516 0.205669 0.841192 6.90765 0.128227 0.856422 6.90672 0.261869 0.825427 -15.6217 -4.17951 -5.12207 -15.5696 -5.01631 -6.24424 -0.0 0.0 -0.0 -1.22216 23.3132 1.021 -33.2973 -19.4867 63.7485 0.455677 -12.7203 0.050792 -8.52527 -0.377198 1.02155 0.541189 23.5231 12.5573 -0.0 0.0 -0.0 8.03648 8.9192 -15.6215 -12.2944 33.1346 -57.6558 1.30808 32.9411 -0.386755 51.8862 1.10713 6.31135 0.946165 9.30976 -2.43435 0.0 0.0 0.0 42.6417 -23.1124 -3.88252 -40.2213 -0.480907 6.02924 -22.8699 -1.1678 3.49122 15.6562 -0.0 -0.0 -0.0 0.0 -0.0 19.1071 11.9935 -6.92788 -15.6598 -0.322074 -2.37411 18.4123 -11.6459 2.5394 19.496 -0.0 -0.0 0.0 0.0 0.0 
1060.14678044 728.413 -1826.93309013 -16.1316443017 38.5895621204 12.4621810395 7.28791 0.120776 0.996191 7.28846 0.0571441 1.00186 7.28864 -0.0276604 1.0031 7.28726 0.1311 0.994884 -16.3024 -4.16575 -5.30724 -16.2458 -4.95496 -6.4472 -0.0 0.0 -0.0 -1.02272 23.1786 1.276 -35.5179 -18.7043 63.0189 0.465105 -12.9747 0.0528882 -7.57416 -0.327619 0.910469 0.80935 21.6473 13.5304 -0.0 0.0 -0.0 8.46741 8.42959 -16.5496 -12.7465 33.0144 -57.8292 1.35832 33.9338 -0.414441 51.2299 1.05826 6.24295 1.14242 9.89191 -3.51106 0.0 0.0 0.0 39.4027 -25.6567 -7.11334 -31.9704 -0.036436 4.84309 -23.5002 -0.0262529 3.57572 13.6505 -0.0 -0.0 -0.0 0.0 -0.0 17.8554 11.1941 -5.90647 -15.9308 -0.321899 -2.41569 18.1726 -11.924 2.50988 20.3784 -0.0 -0.0 0.0 0.0 0.0 
1049.30722213 728.152 -1834.79277103 -16.982495906 38.455014892 13.2416760046 7.49152 0.09982 1.11616 7.49221 0.028598 1.12025 7.49171 -0.0621434 1.11889 7.48998 0.115334 1.11467 -16.6904 -3.76107 -4.20061 -16.6637 -4.84501 -5.28716 -0.0 0.0 -0.0 -0.838361 22.7212 1.46844 -35.7811 -18.6798 62.5327 0.479461 -13.361 0.0561586 -7.0146 -0.299317 0.844742 0.900158 20.8583 13.8198 -0.0 0.0 -0.0 8.70891 7.1061 -17.0819 -12.7063 33.1891 -58.2888 1.40324 34.8021 -0.439796 50.987 1.04037 6.2175 1.33241 10.5771 -4.50051 0.0 0.0 0.0 38.4583 -26.6333 -7.78587 -28.168 0.109863 4.278 -23.2502 1.75344 3.52274 12.5533 -0.0 -0.0 -0.0 0.0 -0.0 17.7555 10.9691 -5.90112 -15.7536 -0.322035 -2.38851 17.3053 -11.4828 2.39746 20.0552 -0.0 -0.0 0.0 0.0 0.0 
1044.19359894 728.832 -1847.11722417 -17.1965375656 36.919629815 13.1804041054 7.54138 0.045584 1.25153 7.54225 -0.0341404 1.2519 7.54018 -0.134292 1.24514 7.53802 0.0640244 1.25073 -17.0415 -3.40188 -3.31896 -17.033 -4.67796 -4.34957 -0.0 0.0 -0.0 -0.521451 22.0643 1.82663 -35.2396 -18.9776 62.2884 0.50368 -14.0099 0.0618888 -6.54884 -0.27625 0.789828 0.976834 20.2538 14.0889 -0.0 0.0 -0.0 8.75633 6.22607 -17.1883 -13.9106 33.2194 -58.1754 1.42765 35.2665 -0.453812 50.7413 1.02239 6.19169 1.46825 11.0284 -5.22411 0.0 0.0 0.0 37.5033 -27.3853 -8.23424 -24.799 0.207892 3.77033 -23.1292 3.33197 3.49409 11.7811 -0.0 -0.0 -0.0 0.0 -0.0 17.5577 11.0698 -5.91851 -15.7602 -0.322031 -2.38952 16.5475 -11.1232 2.2987 19.723 -0.0 -0.0 0.0 0.0 0.0 
1037.45150644 726.1 -1857.28203774 -17.6787724786 35.4154840894 12.5992290525 7.82318 0.204832 1.15776 7.82391 0.130751 1.16844 7.82535 0.0426391 1.17496 7.82349 0.227655 1.15349 -16.6583 -4.35785 -3.05888 -16.6764 -6.63432 -4.43275 -0.0 0.0 -0.0 -0.542522 22.1115 1.80289 -34.6109 -19.038 61.7735 0.561236 -15.5372 0.0765669 -6.29653 -0.263942 0.760003 1.15094 19.732 14.9925 -0.0 0.0 -0.0 8.79248 6.13507 -17.2651 -15.2192 32.9036 -57.443 1.44893 35.6669 -0.466155 50.5132 1.00579 6.16765 1.72736 12.1319 -6.49609 0.0 0.0 0.0 36.2508 -27.4547 -8.63737 -10.0667 0.281795 1.51723 -21.8982 6.38297 3.29616 11.0432 -0.0 -0.0 -0.0 0.0 -0.0 18.5272 10.9746 -4.89622 -18.1942 -0.312759 -2.76283 16.3664 -12.3947 2.27905 19.6323 -0.0 -0.0 0.0 0.0 0.0 
1029.59554908 726.1 -1850.25666704 -17.9428366371 36.5475088785 13.0486581971 7.82318 0.204832 1.15776 7.82391 0.130751 1.16844 7.82535 0.0426391 1.17496 7.82349 0.227655 1.15349 -16.6583 -4.35785 -3.05888 -16.6764 -6.63432 -4.43275 -0.0 0.0 -0.0 -0.542522 22.1115 1.80289 -34.6109 -19.038 61.7735 0.561236 -15.5372 0.0765669 -6.29653 -0.263942 0.760003 1.15094 19.732 14.9925 -0.0 0.0 -0.0 8.79248 6.13507 -17.2651 -15.2192 32.9036 -57.443 1.44893 35.6669 -0.466155 50.5132 1.00579 6.16765 1.72736 12.1319 -6.49609 0.0 0.0 0.0 36.2508 -27.4547 -8.63737 -10.0667 0.281795 1.51723 -21.8982 6.38297 3.29616 11.0432 -0.0 -0.0 -0.0 0.0 -0.0 18.5272 10.9746 -4.89622 -18.1942 -0.312759 -2.76283 16.3664 -12.3947 2.27905 19.6323 -0.0 -0.0 0.0 0.0 0.0 
1024.21330023 726.1 -1845.27024371 -18.1355847106 37.3345780385 13.369366144 7.82318 0.204832 1.15776 7.82391 0.130751 1.16844 7.82535 0.0426391 1.17496 7.82349 0.227655 1.15349 -16.6583 -4.35785 -3.05888 -16.6764 -6.63432 -4.43275 -0.0 0.0 -0.0 -0.542522 22.1115 1.80289 -34.6109 -19.038 61.7735 0.561236 -15.5372 0.0765669 -6.29653 -0.263942 0.760003 1.15094 19.732 14.9925 -0.0 0.0 -0.0 8.79248 6.13507 -17.2651 -15.2192 32.9036 -57.443 1.44893 35.6669 -0.466155 50.5132 1.00579 6.16765 1.72736 12.1319 -6.49609 0.0 0.0 0.0 36.2508 -27.4547 -8.63737 -10.0667 0.281795 1.51723 -21.8982 6.38297 3.29616 11.0432 -0.0 -0.0 -0.0 0.0 -0.0 18.5272 10.9746 -4.89622 -18.1942 -0.312759 -2.76283 16.3664 -12.3947 2.27905 19.6323 -0.0 -0.0 0.0 0.0 0.0 
1019.16558298 726.1 -1840.45984011 -18.3258508628 38.0817448786 13.680434577 7.82318 0.204832 1.15776 7.82391 0.130751 1.16844 7.82535 0.0426391 1.17496 7.82349 0.227655 1.15349 -16.6583 -4.35785 -3.05888 -16.6764 -6.63432 -4.43275 -0.0 0.0 -0.0 -0.542522 22.1115 1.80289 -34.6109 -19.038 61.7735 0.561236 -15.5372 0.0765669 -6.29653 -0.263942 0.760003 1.15094 19.732 14.9925 -0.0 0.0 -0.0 8.79248 6.13507 -17.2651 -15.2192 32.9036 -57.443 1.44893 35.6669 -0.466155 50.5132 1.00579 6.16765 1.72736 12.1319 -6.49609 0.0 0.0 0.0 36.2508 -27.4547 -8.63737 -10.0667 0.281795 1.51723 -21.8982 6.38297 3.29616 11.0432 -0.0 -0.0 -0.0 0.0 -0.0 18.5272 10.9746 -4.89622 -18.1942 -0.312759 -2.76283 16.3664 -12.3947 2.27905 19.6323 -0.0 -0.0 0.0 0.0 0.0 
